# xmcd
#
# Track frame offsets:
#	150
#	14342
#	26566
#	38558
#	55315
#	68733
#	87453
#	100968
#	116404
#	131251
#	143259
#
# Disc length: 2110 seconds
# Revision: 0
# Processed by: cddbd v1.5.2PL0 Copyright (c) Steve Scherf et al.
# Submitted via: dBpowerAMP V12.0
#
DISCID=85083c0b
DTITLE=Songs From The Road Band - Waiting On A Ride
DYEAR=2019
DGENRE=Country
TTITLE0=Any Highway
TTITLE1=Waiting On A Ride
TTITLE2=Can't Afford Not To
TTITLE3=Thunderstorm Serenade
TTITLE4=Even The Good Ones
TTITLE5=Waterloo
TTITLE6=Lost In Austin
TTITLE7=Long Slow Road
TTITLE8=Green Rush
TTITLE9=Wood Chuckin'
TTITLE10=Nowhere To Land
EXTD=
EXTT0=
EXTT1=
EXTT2=
EXTT3=
EXTT4=
EXTT5=
EXTT6=
EXTT7=
EXTT8=
EXTT9=
EXTT10=
PLAYORDER=
